<svg version="1.1" xmlns="http://www.w3.org/2000/svg" style="display: block;" viewBox="0 0 2048 2048" width="512" height="512">
<path transform="translate(0,0)" fill="rgb(0,0,0)" d="M 1647.33 886.5 C 1652.5 886.623 1673.4 893.583 1679.99 895.285 L 1978.49 973.5 C 1987.84 976.086 1998.15 978.644 2006.76 983.17 L 2008 983.844 C 2013.21 986.638 2018.37 990.886 2021.82 995.723 L 2023.26 997.749 C 2033.15 1011.84 2033.35 1034.92 2023.79 1049.45 C 2013.17 1065.6 1995.54 1069.68 1978 1074.2 L 1942.79 1082.71 L 1645.43 1159.91 C 1657.61 1099.22 1664.72 1033.49 1658.31 971.5 L 1652.71 925.999 C 1650.76 913.35 1646.46 899.2 1647.33 886.5 z"/>
<path transform="translate(0,0)" fill="rgb(0,0,0)" d="M 1158.52 1640.5 C 1159.69 1640.47 1160.64 1640.8 1161.77 1641.09 L 1162 1642.19 C 1162.58 1648.32 1158.32 1658.44 1156.57 1664.5 L 1069.49 1988.38 C 1063.89 2006.49 1052.94 2023.09 1032.26 2025.02 L 1031 2025.13 C 1015.14 2026.71 999.705 2023.28 990.168 2009.19 L 989.5 2008.17 C 976.682 1989.16 972.439 1961.74 966.374 1939.76 L 911.369 1733.87 C 907.063 1718.2 883.511 1653.66 889.509 1640.18 C 965.389 1659.99 1048.57 1658.68 1125.66 1647.43 L 1158.52 1640.5 z"/>
<path transform="translate(0,0)" fill="rgb(0,0,0)" d="M 401.476 886.5 L 403.827 886.341 C 405.099 889.159 402.708 893.793 401.961 896.92 L 398.009 918 C 384.869 996.623 387.125 1082.79 405.816 1160.64 L 113.212 1083.87 L 53 1066.98 C 38.0752 1061.93 22.4004 1051.56 18.9461 1035.12 L 18.6265 1033.5 C 8.69189 986.555 64.1235 973.578 96.8722 965.28 L 401.476 886.5 z"/>
<path transform="translate(0,0)" fill="rgb(0,0,0)" d="M 1018.62 24.2138 L 1020.07 23.8372 C 1056.91 15.4508 1069.35 62.324 1076.52 87.0114 L 1151.7 356.932 C 1154.23 365.203 1168.17 400.666 1164.46 408.465 C 1160.03 409.598 1154.63 408.928 1150.17 407.984 C 1113.43 400.198 1075.85 395.297 1038.25 394.953 C 1010.46 394.188 982.36 394.466 954.703 397.322 L 886.179 406 C 885.791 401.56 886.325 397.654 887.414 393.331 L 971.846 90.9202 C 979.554 62.7717 983.958 30.6806 1018.62 24.2138 z"/>
<path transform="translate(0,0)" fill="rgb(0,0,0)" d="M 1453.09 1491.5 L 1455.41 1491.21 C 1459.03 1496.95 1460.72 1504.77 1462.79 1511.25 L 1553.28 1843 C 1555.13 1849.59 1556.24 1857.61 1554.34 1864.38 L 1554 1865.5 C 1550.58 1877.42 1542.31 1889.42 1531.35 1895.6 L 1530.15 1896.25 C 1503.99 1910.85 1484.86 1899.01 1466.46 1880.83 L 1403.98 1819.58 L 1216.71 1625.06 C 1278.1 1611.26 1349.54 1569.31 1399.22 1533.14 C 1417.59 1519.77 1434.18 1504.02 1453.09 1491.5 z"/>
<path transform="translate(0,0)" fill="rgb(0,0,0)" d="M 593.334 1493.46 C 602.445 1497.66 610.33 1504.55 618.333 1510.52 L 656.034 1537.5 C 712.746 1575.02 769.315 1603.92 833.485 1626.08 L 646.5 1817.12 L 597.286 1866.99 C 587.933 1876.56 578.65 1887.49 568.078 1895.67 C 541.128 1916.53 502.83 1896.67 495.228 1866.13 C 491.421 1850.84 498.311 1834.67 501.973 1820 L 579.812 1529.72 C 583.505 1516.92 586.521 1505.05 593.334 1493.46 z"/>
<path transform="translate(0,0)" fill="rgb(0,0,0)" d="M 1632.19 1219.5 L 1633.03 1219.62 C 1636.02 1220.81 1639.22 1224.47 1641.58 1226.66 L 1817.28 1395.9 C 1840.69 1419.07 1865.65 1441.44 1887.62 1465.97 C 1909.45 1490.35 1920.08 1525.84 1886.18 1546.42 C 1871.22 1555.5 1852.07 1551.56 1836 1548.1 L 1783.24 1534.5 C 1775.68 1531.13 1765.51 1529.54 1757.4 1527.33 L 1488.25 1455.56 C 1531.38 1410.13 1568.84 1352.84 1596.74 1297.02 L 1622.91 1237 C 1625.45 1230.72 1627.55 1224.61 1632.19 1219.5 z"/>
<path transform="translate(0,0)" fill="rgb(0,0,0)" d="M 416.314 1222.5 L 418.466 1222.14 C 425.267 1228.29 426.149 1237.53 429.223 1245.75 L 445.548 1285.63 C 464.154 1326.35 487.908 1365.42 514.525 1401.36 L 538.157 1430.52 C 546.218 1439.95 566.836 1456.68 550.5 1461.49 L 264.187 1535.15 L 220.249 1545.69 C 211.824 1547.79 203.165 1550.28 194.594 1551.56 C 150.71 1558.1 124.78 1508.12 154.209 1473.67 C 167.665 1457.92 183.265 1443.06 197.925 1428.42 L 361.403 1269.38 C 378.461 1253.26 394.718 1232.65 416.314 1222.5 z"/>
<path transform="translate(0,0)" fill="rgb(0,0,0)" d="M 1499.55 142.134 C 1517.37 141.453 1532.77 146.773 1543.78 161.961 L 1546.49 165.751 C 1552.89 175.929 1555.09 187.041 1552.29 198.794 L 1459 545.5 C 1455.18 559.461 1463.07 564.11 1444.2 548.801 L 1422.5 532.041 C 1397.74 513.225 1371.94 496.231 1344.87 480.926 C 1313.89 464.698 1247.5 428.725 1212.95 424.16 L 1211.89 424.03 C 1220.81 416.084 1228.46 406.75 1236.63 398.052 L 1452.3 176.95 C 1466.67 161.989 1478.2 146.708 1499.55 142.134 z"/>
<path transform="translate(0,0)" fill="rgb(0,0,0)" d="M 537.826 142.378 C 573.08 138.034 630.152 210.128 653.49 233.655 L 828.355 413.981 C 831.03 416.625 835.31 419.592 837.022 422.876 C 794.324 433.679 751.852 454.582 713.502 475.932 C 671.738 499.075 627.749 526.729 592.229 559.11 L 591.586 558.784 C 591.01 550.32 587.853 541.753 585.724 533.561 L 504.862 233 C 501.473 219.359 496.325 204.986 494.931 190.976 C 492.404 165.576 513.367 144.833 537.826 142.378 z"/>
<path transform="translate(0,0)" fill="rgb(0,0,0)" d="M 1858.21 491.344 C 1860.67 491.079 1862.8 490.873 1865.26 491.287 L 1866.46 491.5 C 1899.82 497.059 1918.87 535.108 1899.96 564.816 C 1892.52 576.496 1882.21 585.745 1872.35 595.323 L 1657.61 803.708 C 1648.63 812.057 1638.81 820.058 1630.95 829.466 L 1629.89 830.745 C 1623.27 807.726 1613.11 785.415 1603.25 763.621 C 1572.82 699.062 1532.02 641.67 1485.2 588.04 C 1505.51 580.705 1527.73 576.71 1548.66 571.149 L 1789.48 508.091 C 1812.07 501.98 1835.03 494.658 1858.21 491.344 z"/>
<path transform="translate(0,0)" fill="rgb(0,0,0)" d="M 181.771 491.17 C 203.137 490.527 222.084 497.684 242.49 503.5 L 485 565.959 C 510.667 572.57 537.578 578.035 562.622 586.475 L 560.024 591 C 554.721 600.614 545.058 608.829 538.002 617.345 C 519.457 639.728 498.927 665.091 484.829 690.735 L 447.772 757.575 C 443.918 770.859 423.433 820.64 418.092 830.152 L 166.197 584.682 C 149.458 568.09 134.209 551.044 142.421 525.562 L 142.948 524 C 148.944 505.898 163.868 496.113 181.771 491.17 z"/>
<path transform="translate(0,0)" fill="rgb(0,0,0)" d="M 983.1 485.607 C 1149.98 475.612 1310.44 538.224 1424.34 659.899 C 1666.71 918.826 1596.35 1318.21 1296.25 1492.28 C 1223.32 1534.58 1149.73 1558.36 1064.82 1565.39 L 1053 1566.5 C 762.482 1586.92 496.416 1347.42 478.545 1058.97 C 463.01 808.216 621.641 592.208 855.146 512.31 C 897.235 497.908 938.614 488.119 983.1 485.607 z"/>
</svg>